<svg xmlns="http://www.w3.org/2000/svg" xmlns:xlink="http://www.w3.org/1999/xlink" preserveAspectRatio="xMidYMid" width="1437" height="368" viewBox="0 0 1437 368">
  <defs>
    <style>
      .cls-1 {
        fill: #7dc723;
      }

      .cls-1, .cls-2, .cls-3 {
        fill-rule: evenodd;
      }

      .cls-2 {
        fill: #fff;
      }

      .cls-3 {
        fill: #7ac313;
      }
    </style>
  </defs>
  <g>
    <path d="M1330.535,336.621 L1330.535,346.000 L1303.725,346.000 L1303.725,303.370 L1330.230,303.370 L1330.230,312.749 L1313.474,312.749 L1313.474,319.813 L1328.707,319.813 L1328.707,329.070 L1313.474,329.070 L1313.474,336.621 L1330.535,336.621 ZM1097.645,321.214 L1086.617,339.301 L1085.520,339.301 L1074.491,321.214 L1074.491,346.000 L1064.742,346.000 L1064.742,303.370 L1074.491,303.370 L1086.068,322.310 L1097.645,303.370 L1107.394,303.370 L1107.394,346.000 L1097.645,346.000 L1097.645,321.214 ZM858.680,303.370 L868.429,303.370 L868.429,346.000 L858.680,346.000 L858.680,303.370 ZM654.618,346.000 L646.575,331.993 L641.944,331.993 L641.944,346.000 L632.195,346.000 L632.195,303.370 L649.256,303.370 C657.360,303.370 663.879,309.886 663.879,317.986 C663.879,323.223 660.711,327.974 656.019,330.349 L665.098,346.000 L654.618,346.000 ZM649.256,312.505 L641.944,312.505 L641.944,323.467 L649.256,323.467 C651.937,323.467 654.130,321.092 654.130,317.986 C654.130,314.880 651.937,312.505 649.256,312.505 ZM423.381,332.602 L416.983,332.602 L416.983,346.000 L407.234,346.000 L407.234,303.370 L423.381,303.370 C431.789,303.370 438.309,309.886 438.309,317.986 C438.309,326.086 431.789,332.602 423.381,332.602 ZM423.381,312.505 L416.983,312.505 L416.983,323.467 L423.381,323.467 C426.366,323.467 428.560,321.092 428.560,317.986 C428.560,314.880 426.366,312.505 423.381,312.505 Z" class="cls-1"/>
    <path d="M1356.901,113.285 C1344.199,113.285 1337.848,119.632 1337.848,126.742 C1337.848,134.866 1342.167,140.452 1369.857,148.831 C1396.785,156.956 1427.015,166.351 1427.015,203.928 C1427.015,238.206 1399.579,258.518 1360.965,258.518 C1323.623,258.518 1299.743,240.745 1289.835,214.593 L1324.893,194.280 C1331.243,209.007 1342.167,218.909 1362.236,218.909 C1381.542,218.909 1386.370,211.292 1386.370,204.436 C1386.370,193.519 1376.208,189.202 1349.534,181.839 C1323.114,174.476 1297.202,161.780 1297.202,127.757 C1297.202,93.480 1326.163,73.675 1356.901,73.675 C1386.115,73.675 1408.978,87.640 1421.935,113.792 L1387.639,133.851 C1381.542,121.155 1373.160,113.285 1356.901,113.285 ZM1203.339,258.518 C1164.217,258.518 1134.749,235.667 1134.749,197.581 L1134.749,77.230 L1175.394,77.230 L1175.394,194.026 C1175.394,207.483 1181.745,218.909 1203.339,218.909 C1224.932,218.909 1231.282,207.483 1231.282,194.026 L1231.282,77.230 L1271.928,77.230 L1271.928,197.581 C1271.928,235.667 1242.460,258.518 1203.339,258.518 ZM1017.899,77.230 L1058.544,77.230 L1058.544,215.862 L1105.677,215.862 L1127.133,254.963 L1017.899,254.963 L1017.899,77.230 ZM906.136,169.186 L866.761,254.247 L822.304,254.247 L906.946,76.877 L989.968,254.247 L945.512,254.247 L906.136,169.186 ZM685.133,77.230 L729.589,77.230 L768.965,167.369 L808.340,77.230 L852.797,77.230 L769.775,254.600 L685.133,77.230 ZM588.865,258.518 C537.804,258.518 496.396,218.401 496.396,166.097 C496.396,113.792 537.804,73.675 588.865,73.675 C639.927,73.675 681.334,113.792 681.334,166.097 C681.334,218.401 639.927,258.518 588.865,258.518 ZM588.865,113.285 C559.905,113.285 537.042,134.358 537.042,166.097 C537.042,197.835 559.905,218.909 588.865,218.909 C617.826,218.909 640.689,197.835 640.689,166.097 C640.689,134.358 617.826,113.285 588.865,113.285 ZM278.750,306.131 C271.025,313.415 262.510,320.625 253.125,327.915 C229.143,346.544 197.467,368.001 197.467,368.001 C197.467,368.001 215.248,352.064 228.308,341.721 C270.081,306.815 308.720,247.135 322.065,168.741 L346.000,152.499 L329.163,121.945 C329.137,106.088 329.041,86.058 329.041,69.246 C301.230,69.246 284.550,68.953 258.046,68.953 C260.208,58.167 258.577,49.754 258.577,49.754 C258.577,49.754 322.736,49.594 351.002,49.594 C351.002,65.094 350.849,79.622 350.495,93.286 L429.087,168.636 L429.087,109.193 L469.733,69.886 L469.733,261.175 L370.659,163.558 L370.659,225.630 M111.433,318.598 C120.576,317.116 125.805,315.705 140.191,314.070 C147.060,326.024 184.532,365.249 187.085,367.852 C184.807,366.681 150.107,348.768 132.259,335.097 C124.618,329.244 118.287,325.529 111.433,318.598 ZM187.209,367.916 L187.231,368.001 C187.231,368.001 187.176,367.944 187.085,367.852 C187.163,367.892 187.209,367.916 187.209,367.916 ZM63.731,92.898 C90.215,74.161 141.761,49.422 183.021,49.422 C185.903,56.135 184.882,61.333 182.961,68.111 C120.848,68.111 63.731,92.898 63.731,92.898 ZM52.946,226.118 C40.335,203.278 36.585,199.489 31.834,160.495 C38.450,163.078 43.748,165.469 51.619,167.667 C56.481,189.083 57.594,194.023 67.001,206.897 C60.798,214.735 59.831,217.378 52.946,226.118 Z" class="cls-2"/>
  </g>
  <g>
    <path d="M289.722,167.777 C297.190,176.707 301.931,183.694 301.931,183.694 C301.931,183.694 259.047,312.392 207.258,328.248 C202.349,293.858 214.596,294.040 227.785,274.423 C230.273,270.721 232.691,267.696 237.792,259.617 C235.653,276.323 233.409,283.191 229.212,295.279 C237.495,290.940 242.159,282.337 246.402,272.233 C254.563,251.580 252.956,245.850 253.369,218.170 C256.052,227.311 259.845,236.118 261.915,254.283 C266.782,227.282 270.178,200.474 237.145,165.988 C238.284,175.813 240.302,186.214 241.952,196.999 C243.175,204.990 241.756,214.560 240.450,220.853 C232.654,258.414 203.723,276.859 158.730,276.912 C159.431,276.117 160.132,275.322 160.833,274.527 C163.436,272.042 166.041,269.557 168.644,267.072 C180.178,255.624 188.281,245.193 193.881,227.414 C190.176,231.985 186.470,236.558 182.765,241.130 C174.068,252.048 146.586,280.676 124.780,276.614 C119.091,275.554 115.204,272.975 110.959,270.650 C108.565,277.985 101.503,280.728 92.641,281.638 C100.326,300.201 127.880,282.911 145.519,286.409 C157.601,288.806 167.419,295.721 169.579,308.128 C170.276,312.133 170.703,318.680 169.879,323.037 C169.779,323.037 169.679,323.037 169.579,323.037 C169.680,317.412 169.009,312.124 167.776,307.830 C156.954,270.119 99.495,322.990 85.731,293.268 C71.257,293.430 62.973,290.598 58.983,280.490 C58.282,277.807 57.581,275.123 56.880,272.439 C54.770,268.907 50.238,267.367 48.167,262.301 C41.329,245.579 54.265,236.013 66.193,232.184 C69.197,223.936 81.306,215.684 84.310,207.435 C84.715,204.415 78.146,170.050 78.146,170.050 L85.860,159.072 C85.860,159.072 84.111,156.093 82.248,151.617 C36.067,142.837 25.321,109.908 24.603,83.889 C24.869,84.016 25.135,84.143 25.401,84.270 C24.695,83.783 25.190,84.017 24.578,83.843 C24.526,83.829 24.468,83.812 24.399,83.791 C24.456,83.818 24.513,83.845 24.571,83.873 C20.424,100.691 18.564,115.340 31.953,135.521 C36.870,142.932 44.148,148.488 49.439,152.161 C28.765,147.630 7.467,128.943 6.078,100.768 C4.940,77.691 20.684,49.980 39.534,33.645 C33.892,53.318 33.667,60.826 34.199,66.337 C38.065,106.336 72.668,110.774 101.400,117.970 C109.182,109.584 116.036,103.414 127.106,101.726 C118.088,108.519 108.719,128.352 115.138,136.267 C118.538,130.050 122.898,124.132 128.421,116.200 C138.059,103.544 143.559,94.307 162.518,90.910 C167.875,89.950 177.969,91.439 181.272,91.450 C183.943,91.040 185.409,91.143 187.430,89.744 C197.256,77.265 213.396,48.241 179.910,20.609 C175.575,17.032 169.411,12.568 149.903,5.349 C174.548,-0.092 206.674,3.784 224.933,18.515 C247.225,36.500 249.276,66.396 239.119,87.926 C239.749,77.061 238.978,75.531 236.744,61.538 C232.893,37.415 216.315,30.051 200.042,23.332 C200.054,23.270 200.065,23.207 200.077,23.144 C200.053,23.213 200.032,23.269 200.013,23.320 C199.791,23.918 199.894,23.379 199.873,24.240 C199.927,23.950 199.981,23.659 200.035,23.368 C220.628,39.266 234.409,53.932 215.454,94.946 C210.865,104.600 208.012,114.779 180.061,126.925 C210.947,124.032 250.728,114.644 283.404,124.558 C297.464,128.823 297.529,130.702 306.439,140.010 C292.992,104.358 242.854,111.718 242.854,111.718 L246.402,104.188 L229.646,110.523 L236.093,98.219 C257.807,98.654 293.336,102.942 311.034,127.678 C314.140,132.019 320.138,147.634 320.138,147.634 C320.138,147.634 305.575,156.320 289.722,167.777 ZM95.637,263.196 C96.338,262.798 97.039,262.400 97.740,262.003 C97.940,261.108 98.140,260.214 98.341,259.319 C96.903,257.938 95.872,257.888 95.637,255.145 C95.737,255.045 95.837,254.946 95.937,254.846 C96.538,254.151 97.139,253.455 97.740,252.759 C105.692,252.617 104.456,256.906 106.753,262.301 C106.753,262.102 106.753,261.903 106.753,261.705 C111.057,254.748 103.487,248.147 96.838,248.286 C94.328,249.334 91.907,249.770 90.529,251.865 C87.431,256.574 91.031,262.890 95.637,263.196 ZM99.209,158.441 C96.264,162.288 92.977,165.767 87.589,172.874 L91.648,191.825 C90.716,175.803 100.503,169.754 99.209,158.441 ZM119.972,247.392 C117.741,236.973 111.182,231.569 98.040,231.886 C93.854,233.908 90.140,234.381 87.525,237.850 C84.760,236.370 82.118,235.455 77.610,235.464 C76.308,238.943 75.006,242.422 73.704,245.901 C75.507,245.901 77.310,245.901 79.112,245.901 C82.417,245.802 85.722,245.702 89.027,245.603 C95.433,231.667 121.484,239.842 118.771,257.828 C118.871,257.828 118.971,257.828 119.071,257.828 C119.071,257.630 119.071,257.431 119.071,257.232 C120.365,255.091 120.640,250.507 119.972,247.392 ZM176.155,155.849 C159.807,161.721 147.532,162.516 148.488,188.089 C183.659,177.077 187.608,170.135 176.155,155.849 ZM294.157,142.348 C290.352,140.162 286.546,136.540 282.740,134.353 C262.476,125.745 241.101,129.866 235.152,133.551 C252.969,133.559 268.253,134.875 276.803,140.642 C276.028,143.250 275.779,144.773 277.104,146.904 C283.790,149.002 288.753,145.986 294.157,142.646 C294.157,142.547 294.157,142.447 294.157,142.348 ZM200.042,23.332 C200.040,23.344 200.037,23.356 200.035,23.368 C200.027,23.352 200.021,23.336 200.013,23.320 C200.023,23.324 200.032,23.328 200.042,23.332 ZM24.603,83.889 C24.593,83.883 24.582,83.878 24.571,83.873 C24.573,83.863 24.575,83.853 24.578,83.843 C24.586,83.859 24.595,83.873 24.603,83.889 Z" class="cls-3"/>
    <path d="M155.651,178.875 C155.693,179.054 155.735,179.232 155.777,179.411 C176.577,174.623 180.787,163.142 167.242,164.760 C163.485,164.884 156.323,177.705 155.651,178.875 Z" class="cls-2"/>
  </g>
</svg>
